<?xml version="1.0" encoding="utf-8"?>
<!-- Generator: Adobe Illustrator 17.0.2, SVG Export Plug-In . SVG Version: 6.00 Build 0)  -->
<!DOCTYPE svg PUBLIC "-//W3C//DTD SVG 1.1//EN" "http://www.w3.org/Graphics/SVG/1.1/DTD/svg11.dtd">
<svg version="1.1" id="Layer_1" xmlns="http://www.w3.org/2000/svg" xmlns:xlink="http://www.w3.org/1999/xlink" x="0px" y="0px"
	 width="96.968px" height="40px" viewBox="0 0 96.968 40" enable-background="new 0 0 96.968 40" xml:space="preserve">
<rect x="0.188" y="0.078" fill="#ECC900" width="96.78" height="39.922"/>
<g>
	<path fill="#F9F9F9" d="M46.932,6.307c1.095,0,2.19,0,3.285,0c0.682,0.795,0.949,1.8,1.366,2.727
		c0.597,1.325,1.588,1.744,2.905,1.187c0.605-0.256,1.222-0.486,1.812-0.773c0.797-0.388,1.398-0.244,2.038,0.401
		c1.517,1.53,1.549,1.499,0.705,3.546c-0.167,0.405-0.359,0.801-0.502,1.214c-0.322,0.93,0.123,1.966,1.02,2.361
		c0.534,0.235,1.073,0.482,1.635,0.624c1.28,0.323,1.659,1.088,1.637,2.393c-0.021,1.198-0.333,1.944-1.509,2.283
		c-0.523,0.151-1.019,0.397-1.522,0.613c-1.233,0.529-1.642,1.524-1.125,2.74c0.286,0.671,0.577,1.341,0.885,2.002
		c0.303,0.651,0.158,1.145-0.353,1.66c-1.654,1.665-1.637,1.682-3.848,0.799c-0.305-0.122-0.608-0.248-0.913-0.369
		c-1.253-0.498-2.281-0.048-2.799,1.224c-0.248,0.608-0.515,1.209-0.736,1.827c-0.273,0.761-0.771,1.048-1.586,1.017
		c-2.44-0.091-2.133,0.424-3.272-2.148c-0.133-0.3-0.245-0.61-0.386-0.906c-0.495-1.04-1.571-1.459-2.636-1.024
		c-0.642,0.262-1.294,0.507-1.91,0.822c-0.842,0.43-1.466,0.254-2.13-0.419c-1.474-1.495-1.505-1.465-0.687-3.456
		c0.139-0.337,0.291-0.669,0.426-1.008c0.493-1.234,0.061-2.228-1.177-2.721c-0.98-0.39-2.018-0.651-2.89-1.284
		c0-1.095,0-2.19,0-3.285c1.002-0.43,2.008-0.851,3.005-1.292c1.097-0.485,1.51-1.49,1.059-2.586
		c-0.304-0.74-0.648-1.463-0.956-2.201c-0.19-0.456-0.211-0.875,0.149-1.315c1.536-1.878,1.798-1.961,4.055-1.063
		c0.27,0.108,0.54,0.215,0.81,0.324c1.405,0.569,2.388,0.152,2.957-1.222C46.121,8.094,46.535,7.204,46.932,6.307z M48.721,15.79
		c-2.465-0.012-4.359,1.827-4.352,4.225c0.007,2.348,1.875,4.177,4.279,4.189c2.465,0.012,4.359-1.827,4.352-4.225
		C52.993,17.63,51.125,15.802,48.721,15.79z"/>
</g>
</svg>
