<?xml version="1.0" encoding="utf-8"?>
<!-- Generator: Adobe Illustrator 17.0.2, SVG Export Plug-In . SVG Version: 6.00 Build 0)  -->
<!DOCTYPE svg PUBLIC "-//W3C//DTD SVG 1.1//EN" "http://www.w3.org/Graphics/SVG/1.1/DTD/svg11.dtd">
<svg version="1.1" id="Layer_1" xmlns="http://www.w3.org/2000/svg" xmlns:xlink="http://www.w3.org/1999/xlink" x="0px" y="0px"
	 width="120px" height="40px" viewBox="-11.516 0 120 40" enable-background="new -11.516 0 120 40" xml:space="preserve">
<rect x="-11.977" y="0.078" fill="#FF8D00" width="120.833" height="39.922"/>
<g>
	<path fill="#F9F9F9" d="M42,35.847c-1.558-0.056-2.565-0.777-3.242-1.961c-2.455-4.296-4.89-8.602-7.345-12.898
		c-0.557-0.975-1.089-1.924-0.865-3.121c0.285-1.525,1.451-2.213,2.672-2.877c5.857-3.187,11.689-6.417,17.584-9.537
		c1.939-1.026,4.105-1.226,6.269-0.645c3.132,0.841,6.255,1.713,9.373,2.601c1.7,0.484,2.684,2.291,2.189,4.005
		c-0.867,3.004-1.749,6.003-2.657,8.995c-0.768,2.529-2.53,4.19-4.865,5.43c-4.654,2.471-9.256,5.034-13.885,7.549
		c-1.374,0.746-2.764,1.464-4.156,2.178C42.705,35.752,42.309,35.895,42,35.847z M63.217,13.4c-0.019-1.492-1.19-3.081-3.187-3.049
		c-1.509,0.024-3.029,1.014-3.092,3.05c-0.052,1.688,1.274,3.01,3.138,3.108C61.727,16.595,63.148,15.188,63.217,13.4z"/>
</g>
</svg>
