<?xml version="1.0" encoding="utf-8"?>
<!-- Generator: Adobe Illustrator 17.0.2, SVG Export Plug-In . SVG Version: 6.00 Build 0)  -->
<!DOCTYPE svg PUBLIC "-//W3C//DTD SVG 1.1//EN" "http://www.w3.org/Graphics/SVG/1.1/DTD/svg11.dtd">
<svg version="1.1" id="Layer_1" xmlns="http://www.w3.org/2000/svg" xmlns:xlink="http://www.w3.org/1999/xlink" x="0px" y="0px"
	 width="120px" height="40px" viewBox="-11.516 0 120 40" enable-background="new -11.516 0 120 40" xml:space="preserve">
<rect x="-11.829" y="0.078" fill="#FF8D00" width="122.297" height="39.922"/>
<g>
	<path fill="#FCFCFC" d="M30.508,31.797c0.953-2.395,1.91-4.789,2.852-7.188c0.121-0.308,0.297-0.535,0.559-0.725
		c6.335-4.62,12.67-9.239,18.994-13.874c0.426-0.312,0.633-0.251,0.926,0.158c1.573,2.192,3.164,4.371,4.772,6.538
		c0.301,0.405,0.293,0.62-0.133,0.93c-6.342,4.61-12.672,9.236-19.003,13.861c-0.261,0.191-0.532,0.29-0.861,0.311
		c-2.572,0.165-5.143,0.348-7.714,0.525C30.489,32.359,30.359,32.18,30.508,31.797z M39.123,27.131
		c0.282-0.004,0.428-0.18,0.596-0.303c4.389-3.199,8.775-6.402,13.162-9.604c1.198-0.875,1.176-0.859,0.312-2.099
		c-0.319-0.458-0.539-0.444-0.96-0.134c-4.376,3.216-8.767,6.413-13.154,9.615c-1.198,0.875-1.199,0.875-0.3,2.09
		C38.893,26.85,39.018,26.997,39.123,27.131z"/>
	<path fill="#FCFCFC" d="M63.873,12.784c-0.559,1.49-1.85,2.265-3.052,3.13c-0.254,0.183-0.416,0.11-0.582-0.118
		c-1.677-2.303-3.356-4.604-5.038-6.903c-0.167-0.228-0.184-0.404,0.067-0.59c1.19-0.88,2.321-1.874,3.91-1.952
		c0.618,0.097,1.236,0.193,1.855,0.29c0.337,0.19,0.69,0.358,1.01,0.574c1.314,0.887,1.933,2.18,2.121,3.714
		C64.066,11.548,63.969,12.166,63.873,12.784z"/>
</g>
</svg>
